<svg xmlns="http://www.w3.org/2000/svg" viewBox="0 0 429.26 160.46"><defs><style>.cls-1{fill:#4d4d4d;}</style></defs><title>Asset 6</title><g id="Layer_2" data-name="Layer 2"><g id="Layer_1-2" data-name="Layer 1"><path class="cls-1" d="M208.78,90c0,3.44-.87,5.89-2.59,7.34a9,9,0,0,1-5.91,2.18H121.94a73.21,73.21,0,0,0,2,17.84A34.3,34.3,0,0,0,130.57,131a29.81,29.81,0,0,0,12.09,8.72q7.43,3,18.19,3A74.08,74.08,0,0,0,176,141.36a89.59,89.59,0,0,0,11.49-3.1c3.23-1.15,5.89-2.18,8-3.11a13.16,13.16,0,0,1,4.72-1.39,3,3,0,0,1,1.66.47,3.07,3.07,0,0,1,1.13,1.38,9.88,9.88,0,0,1,.59,2.58,33.05,33.05,0,0,1,.2,4,28.53,28.53,0,0,1-.13,3c-.09.84-.2,1.58-.33,2.24a5.62,5.62,0,0,1-.66,1.79,7.57,7.57,0,0,1-1.19,1.52,19.58,19.58,0,0,1-4.29,2.38,63.18,63.18,0,0,1-9.26,3.24,131.73,131.73,0,0,1-13.15,2.84,95.82,95.82,0,0,1-15.93,1.25q-14.67,0-25.71-4.09a47.84,47.84,0,0,1-18.57-12.16A52,52,0,0,1,103.17,124q-3.84-12.15-3.84-28.28a88.93,88.93,0,0,1,4-27.56,58.26,58.26,0,0,1,11.43-20.75,49.91,49.91,0,0,1,18-13.09,59.18,59.18,0,0,1,23.66-4.56q14,0,23.86,4.49a45.07,45.07,0,0,1,16.19,12.1,48.58,48.58,0,0,1,9.32,17.84,77.91,77.91,0,0,1,3,21.88Zm-21.94-6.47q.39-17.19-7.65-27t-23.87-9.78a31.65,31.65,0,0,0-14.23,3,30.81,30.81,0,0,0-10.24,8.06,37,37,0,0,0-6.39,11.7,48.46,48.46,0,0,0-2.52,14Z"/><path class="cls-1" d="M330.6,156.37a3,3,0,0,1-.52,1.78,4.16,4.16,0,0,1-1.72,1.26,12.45,12.45,0,0,1-3.31.79,43.11,43.11,0,0,1-5.28.26,44.39,44.39,0,0,1-5.42-.26,12.45,12.45,0,0,1-3.31-.79,4.1,4.1,0,0,1-1.72-1.26,3,3,0,0,1-.52-1.78V86.71a68.28,68.28,0,0,0-1.59-16.39,34,34,0,0,0-4.63-10.71,20.19,20.19,0,0,0-7.86-6.87,24.91,24.91,0,0,0-11.17-2.38q-8.21,0-16.39,5.82T250,73.23v83.14a3,3,0,0,1-.53,1.78,4.16,4.16,0,0,1-1.72,1.26,12.35,12.35,0,0,1-3.31.79,44.5,44.5,0,0,1-5.42.26,43.11,43.11,0,0,1-5.28-.26,13.29,13.29,0,0,1-3.37-.79,3.59,3.59,0,0,1-1.72-1.26,3.23,3.23,0,0,1-.46-1.78v-119a3.76,3.76,0,0,1,.39-1.79,3.63,3.63,0,0,1,1.59-1.32,8.78,8.78,0,0,1,3-.79,48.41,48.41,0,0,1,4.89-.2c1.94,0,3.55.07,4.82.2a7.75,7.75,0,0,1,3,.79,4.3,4.3,0,0,1,1.52,1.32,3.26,3.26,0,0,1,.46,1.79V53.14q10-11.23,20-16.46A43.07,43.07,0,0,1,288,31.46q11.9,0,20,4a36.11,36.11,0,0,1,13.15,10.77,42.86,42.86,0,0,1,7.2,15.8A93.62,93.62,0,0,1,330.6,83.8Z"/><path class="cls-1" d="M412.59,146.19a27.81,27.81,0,0,1-.53,6.08,6.7,6.7,0,0,1-1.59,3.3,10.25,10.25,0,0,1-3.17,2,26.81,26.81,0,0,1-4.82,1.52q-2.72.58-5.75,1a47.85,47.85,0,0,1-6.08.39A45.78,45.78,0,0,1,374.79,158a25.65,25.65,0,0,1-10.84-7.4,30.56,30.56,0,0,1-6.15-12.56,73.77,73.77,0,0,1-1.92-17.91V50.62H339.23a3.56,3.56,0,0,1-3.17-2.11c-.8-1.41-1.19-3.7-1.19-6.87a22.82,22.82,0,0,1,.33-4.23,11.8,11.8,0,0,1,.86-2.85A3.31,3.31,0,0,1,337.45,33a3.94,3.94,0,0,1,1.91-.46h16.52V4.23a3.34,3.34,0,0,1,.47-1.72,3.74,3.74,0,0,1,1.72-1.39,11.55,11.55,0,0,1,3.37-.86A45.09,45.09,0,0,1,366.72,0a46.75,46.75,0,0,1,5.42.26,10.85,10.85,0,0,1,3.31.86,4.43,4.43,0,0,1,1.72,1.39,3,3,0,0,1,.52,1.72V32.52H424.9a3.6,3.6,0,0,1,1.85.46,3.91,3.91,0,0,1,1.39,1.58,9.33,9.33,0,0,1,.86,2.85,29.3,29.3,0,0,1,.26,4.23c0,3.17-.39,5.46-1.19,6.87a3.56,3.56,0,0,1-3.17,2.11H377.69V117q0,12.28,3.64,18.57t13,6.28a22.3,22.3,0,0,0,5.42-.6c1.58-.39,3-.81,4.23-1.25s2.29-.86,3.17-1.26a5.8,5.8,0,0,1,2.38-.59,2.51,2.51,0,0,1,1.25.33,2.2,2.2,0,0,1,.93,1.25,14.89,14.89,0,0,1,.59,2.51A24.3,24.3,0,0,1,412.59,146.19Z"/><path class="cls-1" d="M74.81,99.53a41.7,41.7,0,0,0-9.71-6.74Q59.61,90,54,87.77T43,83.4a57.06,57.06,0,0,1-9.65-4.75,25.23,25.23,0,0,1-6.87-6.15,13.9,13.9,0,0,1-2.65-8.66A16.87,16.87,0,0,1,25.18,57a15.16,15.16,0,0,1,4.1-5.49,18.79,18.79,0,0,1,6.94-3.57A34.72,34.72,0,0,1,46,46.66a38.19,38.19,0,0,1,11,1.45c1.42.43,2.75.87,4,1.33l-10.91,6a3.08,3.08,0,0,0-1.21,4.19l3.25,5.88a3.07,3.07,0,0,0,4.19,1.21L75.76,56l0,0,11.3-6.3L80.85,38.49l0,0L70,19a3.1,3.1,0,0,0-4.2-1.21L60,21a3.1,3.1,0,0,0-1.21,4.2L62.47,32a67.82,67.82,0,0,0-6.69-1.44,57.69,57.69,0,0,0-9.52-.79,56.27,56.27,0,0,0-19,2.91,40.73,40.73,0,0,0-13.54,7.73A31,31,0,0,0,5.62,51.62,34,34,0,0,0,2.91,65,32.77,32.77,0,0,0,5.49,78.65a31.47,31.47,0,0,0,6.8,9.78,42.21,42.21,0,0,0,9.59,6.94,112.47,112.47,0,0,0,11,5.09c3.74,1.49,7.38,2.93,10.9,4.29a57,57,0,0,1,9.52,4.69,25,25,0,0,1,6.81,6.08A13.78,13.78,0,0,1,62.65,124a18.71,18.71,0,0,1-1.78,8.46,15.6,15.6,0,0,1-5.09,5.88,24.25,24.25,0,0,1-7.8,3.51,39.39,39.39,0,0,1-10,1.19,43.71,43.71,0,0,1-13.09-1.79,64.78,64.78,0,0,1-9.85-3.9c-2.77-1.41-5.11-2.71-7-3.9s-3.33-1.78-4.3-1.78a3,3,0,0,0-1.65.46,2.92,2.92,0,0,0-1.12,1.52,14.18,14.18,0,0,0-.67,2.78A29.3,29.3,0,0,0,0,140.64a25.13,25.13,0,0,0,.66,6.47,7.54,7.54,0,0,0,2.12,3.71,22.6,22.6,0,0,0,4.62,3A53.61,53.61,0,0,0,15.13,157a72.45,72.45,0,0,0,22.41,3.5A67,67,0,0,0,56.44,158a43.14,43.14,0,0,0,14.8-7.4,33.15,33.15,0,0,0,9.59-12,37.72,37.72,0,0,0,3.37-16.26,31.13,31.13,0,0,0-2.58-13.21A30.49,30.49,0,0,0,74.81,99.53Z"/></g></g></svg>